<svg id="visual" viewBox="0 0 900 600" width="900" height="600" xmlns="http://www.w3.org/2000/svg" xmlns:xlink="http://www.w3.org/1999/xlink" version="1.1"><g transform="translate(483.66473937642115 306.0794463689065)"><path d="M125.7 -226.7C159 -198.4 179.5 -157 190.1 -117C200.7 -77 201.4 -38.5 200.6 -0.4C199.9 37.7 197.8 75.3 180.3 103.3C162.8 131.3 129.9 149.7 97.3 176.8C64.7 204 32.3 240 -8.2 254.3C-48.8 268.6 -97.7 261.2 -135.9 237.2C-174.2 213.3 -201.8 172.9 -227.4 130.6C-253 88.3 -276.5 44.2 -265.3 6.5C-254.1 -31.3 -208.3 -62.5 -183.2 -105.7C-158.1 -148.8 -153.8 -203.9 -126.7 -235.8C-99.7 -267.6 -49.8 -276.3 -1.8 -273.1C46.2 -270 92.3 -254.9 125.7 -226.7" fill="#f1bba2"></path></g></svg>